<mxfile host="app.diagrams.net" modified="2021-11-11T18:14:23.131Z" agent="5.0 (Windows NT 10.0; Win64; x64) AppleWebKit/537.36 (KHTML, like Gecko) Chrome/95.0.4638.69 Safari/537.36" etag="hZiiLMlwd2_LX5GeZvEk" version="15.7.0" type="github">
  <diagram id="Rmv4DNgiI5Dm1B7l5suz" name="Page-1">
    <mxGraphModel dx="780" dy="1112" grid="1" gridSize="10" guides="1" tooltips="1" connect="1" arrows="1" fold="1" page="1" pageScale="1" pageWidth="850" pageHeight="1100" math="0" shadow="0">
      <root>
        <mxCell id="0" />
        <mxCell id="1" parent="0" />
        <mxCell id="qymJQ2tHNxiyvb_zJK8w-7" value="" style="edgeStyle=orthogonalEdgeStyle;rounded=0;orthogonalLoop=1;jettySize=auto;html=1;fontColor=#FF0000;fillColor=#e6d0de;strokeColor=#996185;strokeWidth=3;gradientColor=#d5739d;" edge="1" parent="1" source="x6ZUs-0rSzBakWrwe3Fc-1" target="qymJQ2tHNxiyvb_zJK8w-3">
          <mxGeometry relative="1" as="geometry" />
        </mxCell>
        <mxCell id="qymJQ2tHNxiyvb_zJK8w-8" value="" style="edgeStyle=orthogonalEdgeStyle;rounded=0;orthogonalLoop=1;jettySize=auto;html=1;fontColor=#FF0000;strokeWidth=3;fillColor=#f8cecc;gradientColor=#ea6b66;strokeColor=#b85450;" edge="1" parent="1" source="x6ZUs-0rSzBakWrwe3Fc-1" target="qymJQ2tHNxiyvb_zJK8w-3">
          <mxGeometry relative="1" as="geometry" />
        </mxCell>
        <mxCell id="x6ZUs-0rSzBakWrwe3Fc-1" value="" style="sketch=0;pointerEvents=1;shadow=0;dashed=0;html=1;strokeColor=none;fillColor=#505050;labelPosition=center;verticalLabelPosition=bottom;verticalAlign=top;outlineConnect=0;align=center;shape=mxgraph.office.devices.workstation_pc;" vertex="1" parent="1">
          <mxGeometry x="385" y="870" width="90" height="110" as="geometry" />
        </mxCell>
        <mxCell id="x6ZUs-0rSzBakWrwe3Fc-2" value="" style="swimlane;startSize=70;fillColor=#dae8fc;strokeColor=#6c8ebf;" vertex="1" parent="1">
          <mxGeometry x="20" y="260" width="820" height="610" as="geometry" />
        </mxCell>
        <mxCell id="x6ZUs-0rSzBakWrwe3Fc-3" value="Virtual Network&lt;br&gt;&lt;font color=&quot;#ff3333&quot;&gt;Red VS Blue Network&lt;/font&gt;&lt;br&gt;CIDR:&amp;nbsp;192.168.1.0 /24&lt;br&gt;Netmask: 255.255.255.0&lt;br&gt;" style="text;html=1;strokeColor=#6c8ebf;fillColor=#dae8fc;align=center;verticalAlign=middle;whiteSpace=wrap;rounded=0;fontStyle=1;fontSize=12;labelBackgroundColor=none;" vertex="1" parent="x6ZUs-0rSzBakWrwe3Fc-2">
          <mxGeometry x="322.5" width="175" height="70" as="geometry" />
        </mxCell>
        <mxCell id="qymJQ2tHNxiyvb_zJK8w-11" value="" style="edgeStyle=orthogonalEdgeStyle;rounded=0;orthogonalLoop=1;jettySize=auto;html=1;fontColor=#FF0000;strokeWidth=3;entryX=1;entryY=0.5;entryDx=0;entryDy=0;fillColor=#f8cecc;gradientColor=#ea6b66;strokeColor=#b85450;" edge="1" parent="x6ZUs-0rSzBakWrwe3Fc-2" source="qymJQ2tHNxiyvb_zJK8w-3" target="qymJQ2tHNxiyvb_zJK8w-9">
          <mxGeometry relative="1" as="geometry">
            <mxPoint x="217" y="462" as="targetPoint" />
          </mxGeometry>
        </mxCell>
        <mxCell id="qymJQ2tHNxiyvb_zJK8w-3" value="" style="pointerEvents=1;shadow=0;dashed=0;html=1;strokeColor=none;fillColor=#4495D1;labelPosition=center;verticalLabelPosition=bottom;verticalAlign=top;align=center;outlineConnect=0;shape=mxgraph.veeam.hyper_v_host;" vertex="1" parent="x6ZUs-0rSzBakWrwe3Fc-2">
          <mxGeometry x="356" y="410" width="108" height="104" as="geometry" />
        </mxCell>
        <mxCell id="qymJQ2tHNxiyvb_zJK8w-5" value="" style="edgeStyle=orthogonalEdgeStyle;rounded=0;orthogonalLoop=1;jettySize=auto;html=1;" edge="1" parent="x6ZUs-0rSzBakWrwe3Fc-2" source="qymJQ2tHNxiyvb_zJK8w-4" target="qymJQ2tHNxiyvb_zJK8w-3">
          <mxGeometry relative="1" as="geometry" />
        </mxCell>
        <mxCell id="qymJQ2tHNxiyvb_zJK8w-4" value="Hyper-V-Manager - (Red VS Blue Host Machine)&lt;br&gt;OS: Windows&lt;br&gt;&lt;font color=&quot;#ff0000&quot;&gt;192.168.1.1&lt;br&gt;&lt;/font&gt;" style="text;html=1;strokeColor=#6c8ebf;fillColor=#dae8fc;align=center;verticalAlign=middle;whiteSpace=wrap;rounded=0;fontStyle=1;fontSize=12;labelBackgroundColor=none;" vertex="1" parent="x6ZUs-0rSzBakWrwe3Fc-2">
          <mxGeometry x="490" y="430.5" width="160" height="63" as="geometry" />
        </mxCell>
        <mxCell id="qymJQ2tHNxiyvb_zJK8w-6" value="" style="sketch=0;aspect=fixed;html=1;points=[];align=center;image;fontSize=12;image=img/lib/mscae/VM_Linux.svg;fontColor=#FF0000;" vertex="1" parent="x6ZUs-0rSzBakWrwe3Fc-2">
          <mxGeometry x="224.67" y="180" width="97.83" height="90" as="geometry" />
        </mxCell>
        <mxCell id="qymJQ2tHNxiyvb_zJK8w-9" value="" style="image;html=1;image=img/lib/clip_art/computers/Server_Tower_128x128.png;fontColor=#FF0000;" vertex="1" parent="x6ZUs-0rSzBakWrwe3Fc-2">
          <mxGeometry x="110" y="422" width="80" height="80" as="geometry" />
        </mxCell>
        <mxCell id="qymJQ2tHNxiyvb_zJK8w-14" value="" style="edgeStyle=orthogonalEdgeStyle;rounded=0;orthogonalLoop=1;jettySize=auto;html=1;fontColor=#FF0000;strokeColor=#000000;strokeWidth=1;" edge="1" parent="x6ZUs-0rSzBakWrwe3Fc-2" source="qymJQ2tHNxiyvb_zJK8w-12" target="qymJQ2tHNxiyvb_zJK8w-9">
          <mxGeometry relative="1" as="geometry" />
        </mxCell>
        <mxCell id="qymJQ2tHNxiyvb_zJK8w-12" value="ELK Server&lt;br&gt;OS: Linux&lt;br&gt;&lt;font color=&quot;#ff0000&quot;&gt;192.168.1.100&lt;br&gt;&lt;/font&gt;" style="text;html=1;strokeColor=#6c8ebf;fillColor=#dae8fc;align=center;verticalAlign=middle;whiteSpace=wrap;rounded=0;fontStyle=1;fontSize=12;labelBackgroundColor=none;" vertex="1" parent="x6ZUs-0rSzBakWrwe3Fc-2">
          <mxGeometry x="80" y="520" width="140" height="46" as="geometry" />
        </mxCell>
        <mxCell id="qymJQ2tHNxiyvb_zJK8w-16" value="" style="edgeStyle=orthogonalEdgeStyle;rounded=0;orthogonalLoop=1;jettySize=auto;html=1;fontColor=#FF0000;strokeColor=#000000;strokeWidth=1;" edge="1" parent="x6ZUs-0rSzBakWrwe3Fc-2" source="qymJQ2tHNxiyvb_zJK8w-15" target="qymJQ2tHNxiyvb_zJK8w-6">
          <mxGeometry relative="1" as="geometry" />
        </mxCell>
        <mxCell id="qymJQ2tHNxiyvb_zJK8w-15" value="Capstone&lt;br&gt;OS: Linux&lt;br&gt;&lt;font color=&quot;#ff0000&quot;&gt;192.168.1.105&lt;br&gt;&lt;/font&gt;" style="text;html=1;strokeColor=#6c8ebf;fillColor=#dae8fc;align=center;verticalAlign=middle;whiteSpace=wrap;rounded=0;fontStyle=1;fontSize=12;labelBackgroundColor=none;" vertex="1" parent="x6ZUs-0rSzBakWrwe3Fc-2">
          <mxGeometry x="60" y="202" width="140" height="46" as="geometry" />
        </mxCell>
        <mxCell id="qymJQ2tHNxiyvb_zJK8w-17" value="" style="sketch=0;aspect=fixed;html=1;points=[];align=center;image;fontSize=12;image=img/lib/mscae/VM_Linux_Non_Azure.svg;fontColor=#000000;" vertex="1" parent="x6ZUs-0rSzBakWrwe3Fc-2">
          <mxGeometry x="497.5" y="180" width="97.82" height="90" as="geometry" />
        </mxCell>
        <mxCell id="qymJQ2tHNxiyvb_zJK8w-19" value="" style="edgeStyle=orthogonalEdgeStyle;rounded=0;orthogonalLoop=1;jettySize=auto;html=1;fontColor=#000000;strokeColor=#000000;strokeWidth=1;" edge="1" parent="x6ZUs-0rSzBakWrwe3Fc-2" source="qymJQ2tHNxiyvb_zJK8w-18" target="qymJQ2tHNxiyvb_zJK8w-17">
          <mxGeometry relative="1" as="geometry" />
        </mxCell>
        <mxCell id="qymJQ2tHNxiyvb_zJK8w-18" value="Kali Linux&lt;br&gt;OS: Linux&lt;br&gt;&lt;font color=&quot;#ff0000&quot;&gt;192.168.1.8&lt;br&gt;&lt;/font&gt;" style="text;html=1;strokeColor=#6c8ebf;fillColor=#dae8fc;align=center;verticalAlign=middle;whiteSpace=wrap;rounded=0;fontStyle=1;fontSize=12;labelBackgroundColor=none;" vertex="1" parent="x6ZUs-0rSzBakWrwe3Fc-2">
          <mxGeometry x="620" y="202" width="140" height="46" as="geometry" />
        </mxCell>
        <mxCell id="qymJQ2tHNxiyvb_zJK8w-2" value="" style="edgeStyle=orthogonalEdgeStyle;rounded=0;orthogonalLoop=1;jettySize=auto;html=1;fillColor=#f8cecc;strokeColor=#000000;gradientColor=#ea6b66;strokeWidth=1;" edge="1" parent="1" source="qymJQ2tHNxiyvb_zJK8w-1" target="x6ZUs-0rSzBakWrwe3Fc-1">
          <mxGeometry relative="1" as="geometry" />
        </mxCell>
        <mxCell id="qymJQ2tHNxiyvb_zJK8w-1" value="Personal Computer" style="text;html=1;strokeColor=#6c8ebf;fillColor=#dae8fc;align=center;verticalAlign=middle;whiteSpace=wrap;rounded=0;fontStyle=1;fontSize=12;labelBackgroundColor=none;" vertex="1" parent="1">
          <mxGeometry x="355" y="1000" width="150" height="50" as="geometry" />
        </mxCell>
      </root>
    </mxGraphModel>
  </diagram>
</mxfile>
